<svg width="96" height="96" viewBox="0 0 96 96" fill="none" xmlns="http://www.w3.org/2000/svg">
<path d="M34.2 42.1997C34.2 43.2606 33.7785 44.278 33.0284 45.0281C32.2782 45.7783 31.2608 46.1997 30.2 46.1997C29.1391 46.1997 28.1217 45.7783 27.3715 45.0281C26.6214 44.278 26.2 43.2606 26.2 42.1997C26.2 41.1388 26.6214 40.1214 27.3715 39.3713C28.1217 38.6211 29.1391 38.1997 30.2 38.1997C31.2608 38.1997 32.2782 38.6211 33.0284 39.3713C33.7785 40.1214 34.2 41.1388 34.2 42.1997ZM42.2 46.1997C43.2608 46.1997 44.2782 45.7783 45.0284 45.0281C45.7785 44.278 46.2 43.2606 46.2 42.1997C46.2 41.1388 45.7785 40.1214 45.0284 39.3713C44.2782 38.6211 43.2608 38.1997 42.2 38.1997C41.1391 38.1997 40.1217 38.6211 39.3715 39.3713C38.6214 40.1214 38.2 41.1388 38.2 42.1997C38.2 43.2606 38.6214 44.278 39.3715 45.0281C40.1217 45.7783 41.1391 46.1997 42.2 46.1997ZM54.2 46.1997C55.2608 46.1997 56.2782 45.7783 57.0284 45.0281C57.7785 44.278 58.2 43.2606 58.2 42.1997C58.2 41.1388 57.7785 40.1214 57.0284 39.3713C56.2782 38.6211 55.2608 38.1997 54.2 38.1997C53.1391 38.1997 52.1217 38.6211 51.3715 39.3713C50.6214 40.1214 50.2 41.1388 50.2 42.1997C50.2 43.2606 50.6214 44.278 51.3715 45.0281C52.1217 45.7783 53.1391 46.1997 54.2 46.1997Z" fill="white"/>
<path fill-rule="evenodd" clip-rule="evenodd" d="M64.828 19.5719C70.3411 25.0846 73.6523 32.4202 74.1398 40.2014C74.6274 47.9825 72.2578 55.6741 67.476 61.8319C67.54 61.8839 67.596 61.9399 67.656 61.9999L84.628 78.9719C85.3567 79.7263 85.7598 80.7367 85.7507 81.7855C85.7416 82.8343 85.3209 83.8375 84.5793 84.5792C83.8377 85.3208 82.8344 85.7415 81.7856 85.7506C80.7368 85.7597 79.7264 85.3565 78.972 84.6279L62 67.6559C61.9421 67.5978 61.886 67.5377 61.832 67.4759C55.4014 72.4638 47.3122 74.8146 39.2099 74.0499C31.1076 73.2853 23.6009 69.4626 18.217 63.3597C12.8332 57.2568 9.9765 49.332 10.2282 41.1976C10.4799 33.0632 13.8211 25.3303 19.572 19.5719C22.5435 16.6002 26.0712 14.243 29.9538 12.6347C33.8363 11.0265 37.9976 10.1987 42.2 10.1987C46.4025 10.1987 50.5638 11.0265 54.4463 12.6347C58.3288 14.243 61.8565 16.6002 64.828 19.5719ZM25.228 59.1719C27.4566 61.4007 30.1023 63.1687 33.0141 64.375C35.9259 65.5813 39.0468 66.2023 42.1986 66.2025C45.3504 66.2027 48.4714 65.5821 51.3834 64.3761C54.2953 63.1701 56.9412 61.4024 59.17 59.1739C61.3988 56.9454 63.1669 54.2997 64.3732 51.3878C65.5795 48.476 66.2005 45.3551 66.2006 42.2033C66.2008 39.0515 65.5802 35.9305 64.3742 33.0186C63.1683 30.1066 61.4006 27.4607 59.172 25.2319C54.6588 20.7916 48.5738 18.3145 42.2425 18.3403C35.9112 18.3661 29.8466 20.8926 25.3697 25.3695C20.8927 29.8465 18.3662 35.9111 18.3404 42.2424C18.3146 48.5737 20.7917 54.6587 25.232 59.1719H25.228Z" fill="white"/>
</svg>
