<svg width="28" height="27" viewBox="0 0 28 27" fill="none" xmlns="http://www.w3.org/2000/svg">
<path fill-rule="evenodd" clip-rule="evenodd" d="M19.1322 13.7801C19.3455 13.2441 19.4623 12.662 19.4623 12.0536C19.4623 9.39077 17.2238 7.23214 14.4623 7.23214C13.8314 7.23214 13.2277 7.34483 12.6719 7.55048L14.4161 9.23246C14.4315 9.23225 14.4469 9.23214 14.4623 9.23214C16.1884 9.23214 17.4623 10.5633 17.4623 12.0536C17.4623 12.0917 17.4615 12.1296 17.4599 12.1675L19.1322 13.7801ZM12.3679 10.0339C11.8019 10.5572 11.4623 11.2842 11.4623 12.0536C11.4623 13.5439 12.7363 14.875 14.4623 14.875C15.2973 14.875 16.0264 14.5635 16.5568 14.0732L17.9979 15.4628C17.0931 16.3353 15.8431 16.875 14.4623 16.875C11.7009 16.875 9.46234 14.7164 9.46234 12.0536C9.46234 10.7222 10.022 9.51681 10.9268 8.6443L12.3679 10.0339Z" fill="#787878"/>
<path fill-rule="evenodd" clip-rule="evenodd" d="M23.1593 17.6634C24.7241 16.484 26.0485 15.097 27.0664 13.7303L27.9561 12.5357L27.0664 11.3411C25.8041 9.64622 24.0681 7.67946 21.9851 6.11909C19.9129 4.56674 17.3433 3.30357 14.4623 3.30357C12.6841 3.30357 11.0245 3.7848 9.52731 4.51824L11.0766 6.01223C12.1574 5.56685 13.2922 5.30357 14.4623 5.30357C19.0419 5.30357 23.0793 9.33606 25.4623 12.5357C24.4689 13.8696 23.1879 15.1807 21.6999 16.2561L23.1593 17.6634ZM21.4583 18.7997L19.9543 17.3493C18.2808 18.2422 16.4212 18.8036 14.4623 18.8036C9.8828 18.8036 5.84537 15.7354 3.46235 12.5357C4.87368 10.6407 6.8653 8.45363 9.20616 6.9851L7.72827 5.55999C7.45804 5.74075 7.19503 5.92772 6.93957 6.11908C4.85659 7.67946 3.12063 9.64621 1.85833 11.3411L0.968597 12.5357L1.85833 13.7303C4.44362 17.2016 9.00607 20.8036 14.4623 20.8036C17.0299 20.8036 19.3995 20.006 21.4583 18.7997Z" fill="#787878"/>
<line y1="-1" x2="30.5622" y2="-1" transform="matrix(0.719844 0.694135 -0.719844 0.694135 2.96234 2.89286)" stroke="#787878" stroke-width="2"/>
</svg>
