<svg width="101" height="101" viewBox="0 0 101 101" fill="none" xmlns="http://www.w3.org/2000/svg">
<path d="M85.2188 15.7812H15.7812C14.1071 15.7813 12.5015 16.4463 11.3176 17.6301C10.1338 18.814 9.46875 20.4196 9.46875 22.0938V78.9063C9.46875 80.5804 10.1338 82.186 11.3176 83.3699C12.5015 84.5537 14.1071 85.2188 15.7812 85.2188H21.068C21.6656 85.2204 22.2512 85.0503 22.7548 84.7285C23.2584 84.4067 23.6589 83.9469 23.9086 83.4039C25.4529 80.172 27.8804 77.4431 30.9104 75.5327C33.9405 73.6224 37.4493 72.6086 41.0312 72.6086C44.6132 72.6086 48.122 73.6224 51.1521 75.5327C54.1821 77.4431 56.6096 80.172 58.1539 83.4039C58.4036 83.9469 58.8041 84.4067 59.3077 84.7285C59.8113 85.0503 60.3969 85.2204 60.9945 85.2188H85.2188C86.8929 85.2188 88.4985 84.5537 89.6824 83.3699C90.8662 82.186 91.5312 80.5804 91.5312 78.9063V22.0938C91.5312 20.4196 90.8662 18.814 89.6824 17.6301C88.4985 16.4463 86.8929 15.7813 85.2188 15.7812ZM41.0312 66.2813C38.5343 66.2813 36.0933 65.5408 34.0172 64.1536C31.941 62.7663 30.3228 60.7945 29.3673 58.4876C28.4117 56.1807 28.1617 53.6422 28.6488 51.1932C29.136 48.7442 30.3384 46.4947 32.104 44.729C33.8697 42.9634 36.1192 41.761 38.5682 41.2738C41.0172 40.7867 43.5557 41.0367 45.8626 41.9923C48.1695 42.9478 50.1413 44.566 51.5286 46.6422C52.9158 48.7183 53.6562 51.1593 53.6562 53.6563C53.6458 57.0014 52.3124 60.2066 49.947 62.572C47.5816 64.9374 44.3764 66.2708 41.0312 66.2813ZM85.2188 78.9063H62.8883C61.5208 76.5346 59.775 74.4024 57.7199 72.5938H75.75C76.5871 72.5938 77.3899 72.2612 77.9818 71.6693C78.5737 71.0774 78.9062 70.2746 78.9062 69.4375V31.5625C78.9062 30.7254 78.5737 29.9226 77.9818 29.3307C77.3899 28.7388 76.5871 28.4063 75.75 28.4063H25.25C24.4129 28.4063 23.6101 28.7388 23.0182 29.3307C22.4263 29.9226 22.0938 30.7254 22.0938 31.5625V69.4375C22.0978 70.1341 22.3321 70.8098 22.7603 71.3593C23.1885 71.9088 23.7864 72.3012 24.4609 72.4754C22.3561 74.3128 20.5697 76.4857 19.1742 78.9063H15.7812V22.0938H85.2188V78.9063Z" fill="black"/>
</svg>
