<svg width="89" height="89" viewBox="0 0 89 89" fill="none" xmlns="http://www.w3.org/2000/svg">
<path d="M78.7441 19.6078L45.3691 8.48281C44.8028 8.30854 44.1972 8.30854 43.6309 8.48281L10.2906 19.6078H10.2211L9.87343 19.7816H9.83867L9.49101 19.9902C9.49101 20.025 9.45625 20.025 9.42148 20.0598L9.14335 20.3031L8.9 20.5813C8.9 20.616 8.86523 20.616 8.86523 20.6508L8.65664 20.9637C8.65664 20.9984 8.65664 20.9984 8.62187 21.0332L8.48281 21.3461L8.37851 21.7285V21.8328C8.34422 21.969 8.33248 22.11 8.34375 22.25V50.0625C8.34375 50.8001 8.63677 51.5076 9.15835 52.0291C9.67994 52.5507 10.3874 52.8438 11.125 52.8438C11.8626 52.8438 12.5701 52.5507 13.0916 52.0291C13.6132 51.5076 13.9062 50.8001 13.9062 50.0625V26.109L25.5875 30.0027C23.393 33.5154 22.236 37.5769 22.25 41.7188C22.2513 45.4856 23.2089 49.1905 25.0331 52.4862C26.8573 55.7819 29.4883 58.5606 32.6797 60.5617C26.0478 63.0706 20.3861 67.6243 16.5137 73.5641C16.119 74.1882 15.9852 74.9425 16.1413 75.6643C16.2974 76.3861 16.7307 77.0177 17.348 77.4231C17.651 77.6238 17.9907 77.7624 18.3476 77.8308C18.7045 77.8993 19.0714 77.8963 19.4271 77.8219C19.7828 77.7475 20.1202 77.6033 20.4198 77.3976C20.7194 77.1918 20.9751 76.9287 21.1723 76.6234C23.6967 72.7349 27.1531 69.5391 31.2272 67.3267C35.3014 65.1142 39.8639 63.9553 44.5 63.9553C49.1361 63.9553 53.6986 65.1142 57.7728 67.3267C61.8469 69.5391 65.3033 72.7349 67.8277 76.6234C68.0816 77.009 68.4275 77.3253 68.8341 77.5437C69.2408 77.7622 69.6954 77.8761 70.157 77.875C70.6898 77.8806 71.2115 77.7229 71.652 77.4231C72.2693 77.0177 72.7026 76.3861 72.8587 75.6643C73.0148 74.9425 72.881 74.1882 72.4863 73.5641C68.6139 67.6243 62.9522 63.0706 56.3203 60.5617C59.5117 58.5606 62.1427 55.7819 63.9669 52.4862C65.7911 49.1905 66.7487 45.4856 66.75 41.7188C66.764 37.5769 65.607 33.5154 63.4125 30.0027L78.7441 24.8922C79.3006 24.7093 79.7851 24.3554 80.1285 23.881C80.472 23.4065 80.6569 22.8357 80.6569 22.25C80.6569 21.6643 80.472 21.0935 80.1285 20.6191C79.7851 20.1446 79.3006 19.7907 78.7441 19.6078ZM44.5 58.4063C40.0742 58.4063 35.8297 56.6481 32.7002 53.5186C29.5706 50.3891 27.8125 46.1446 27.8125 41.7188C27.8192 38.1578 28.9508 34.6901 31.0457 31.8105L43.6309 36.0172C44.1954 36.2029 44.8046 36.2029 45.3691 36.0172L57.9543 31.8105C60.0492 34.6901 61.1808 38.1578 61.1875 41.7188C61.1875 46.1446 59.4294 50.3891 56.2998 53.5186C53.1703 56.6481 48.9258 58.4063 44.5 58.4063Z" fill="black"/>
</svg>
